<?xml version="1.0" encoding="UTF-8"?>
<svg xmlns="http://www.w3.org/2000/svg" viewBox="0 0 1600 500" width="1600" height="500">
<style>
:root{--bg:#020617;--bg2:#0F172A;--bg3:#111827;--card:#1E293B;--b:#3B82F6;--c:#06B6D4;--d:#38BDF8;--p:#A855F7;--w:#fff;}
text{font-family:Inter,Segoe UI,Arial,sans-serif}
#mesh{animation:mesh 16s ease-in-out infinite alternate}
@keyframes mesh{0%{transform:translate(-40px,-20px)}100%{transform:translate(40px,20px)}}
.float{animation:f 8s ease-in-out infinite}
@keyframes f{50%{transform:translateY(-10px)}}
.node{animation:pulse 2.4s infinite}
@keyframes pulse{50%{opacity:.35;r:5}}
.wave{animation:wave 9s linear infinite}
@keyframes wave{from{transform:translateX(0)}to{transform:translateX(-200px)}}
.grad{background-size:200% 200%;animation:g 8s linear infinite}
@keyframes g{50%{filter:hue-rotate(20deg)}}
.cursor{animation:blink 1s steps(2,end) infinite}
@keyframes blink{50%{opacity:0}}
.fade{opacity:0;animation:cycle 24s infinite}
.fade:nth-of-type(1){animation-delay:0s}
.fade:nth-of-type(2){animation-delay:3s}
.fade:nth-of-type(3){animation-delay:6s}
.fade:nth-of-type(4){animation-delay:9s}
.fade:nth-of-type(5){animation-delay:12s}
.fade:nth-of-type(6){animation-delay:15s}
.fade:nth-of-type(7){animation-delay:18s}
.fade:nth-of-type(8){animation-delay:21s}
@keyframes cycle{0%,10%{opacity:1}12%,100%{opacity:0}}
.glow{filter:url(#glow)}
.small{fill:#9fb3d1;font-size:22px}
</style>
<defs>
<linearGradient id="bg" x1="0" y1="0" x2="1" y2="1">
<stop offset="0" stop-color="#020617"/>
<stop offset=".5" stop-color="#0F172A"/>
<stop offset="1" stop-color="#111827"/>
</linearGradient>
<radialGradient id="r1"><stop offset="0" stop-color="#3B82F6" stop-opacity=".5"/><stop offset="1" stop-color="#3B82F6" stop-opacity="0"/></radialGradient>
<radialGradient id="r2"><stop offset="0" stop-color="#A855F7" stop-opacity=".4"/><stop offset="1" stop-color="#A855F7" stop-opacity="0"/></radialGradient>
<linearGradient id="nameGrad" x1="0" x2="1">
<stop offset="0" stop-color="#3B82F6"/><stop offset=".5" stop-color="#06B6D4"/><stop offset="1" stop-color="#A855F7"/>
</linearGradient>
<filter id="glow"><feGaussianBlur stdDeviation="5" result="b"/><feMerge><feMergeNode in="b"/><feMergeNode in="SourceGraphic"/></feMerge></filter>
</defs>

<rect width="1600" height="500" fill="url(#bg)"/>
<g id="mesh">
<circle cx="220" cy="120" r="180" fill="url(#r1)"/>
<circle cx="1370" cy="110" r="170" fill="url(#r2)"/>
<circle cx="800" cy="420" r="220" fill="url(#r1)" opacity=".35"/>
</g>

<g opacity=".15">
<line x1="0" y1="0" x2="0" y2="500" stroke="#3B82F6" stroke-width="0.5"/><line x1="40" y1="0" x2="40" y2="500" stroke="#3B82F6" stroke-width="0.5"/><line x1="80" y1="0" x2="80" y2="500" stroke="#3B82F6" stroke-width="0.5"/><line x1="120" y1="0" x2="120" y2="500" stroke="#3B82F6" stroke-width="0.5"/><line x1="160" y1="0" x2="160" y2="500" stroke="#3B82F6" stroke-width="0.5"/><line x1="200" y1="0" x2="200" y2="500" stroke="#3B82F6" stroke-width="0.5"/><line x1="240" y1="0" x2="240" y2="500" stroke="#3B82F6" stroke-width="0.5"/><line x1="280" y1="0" x2="280" y2="500" stroke="#3B82F6" stroke-width="0.5"/><line x1="320" y1="0" x2="320" y2="500" stroke="#3B82F6" stroke-width="0.5"/><line x1="360" y1="0" x2="360" y2="500" stroke="#3B82F6" stroke-width="0.5"/><line x1="400" y1="0" x2="400" y2="500" stroke="#3B82F6" stroke-width="0.5"/><line x1="440" y1="0" x2="440" y2="500" stroke="#3B82F6" stroke-width="0.5"/><line x1="480" y1="0" x2="480" y2="500" stroke="#3B82F6" stroke-width="0.5"/><line x1="520" y1="0" x2="520" y2="500" stroke="#3B82F6" stroke-width="0.5"/><line x1="560" y1="0" x2="560" y2="500" stroke="#3B82F6" stroke-width="0.5"/><line x1="600" y1="0" x2="600" y2="500" stroke="#3B82F6" stroke-width="0.5"/><line x1="640" y1="0" x2="640" y2="500" stroke="#3B82F6" stroke-width="0.5"/><line x1="680" y1="0" x2="680" y2="500" stroke="#3B82F6" stroke-width="0.5"/><line x1="720" y1="0" x2="720" y2="500" stroke="#3B82F6" stroke-width="0.5"/><line x1="760" y1="0" x2="760" y2="500" stroke="#3B82F6" stroke-width="0.5"/><line x1="800" y1="0" x2="800" y2="500" stroke="#3B82F6" stroke-width="0.5"/><line x1="840" y1="0" x2="840" y2="500" stroke="#3B82F6" stroke-width="0.5"/><line x1="880" y1="0" x2="880" y2="500" stroke="#3B82F6" stroke-width="0.5"/><line x1="920" y1="0" x2="920" y2="500" stroke="#3B82F6" stroke-width="0.5"/><line x1="960" y1="0" x2="960" y2="500" stroke="#3B82F6" stroke-width="0.5"/><line x1="1000" y1="0" x2="1000" y2="500" stroke="#3B82F6" stroke-width="0.5"/><line x1="1040" y1="0" x2="1040" y2="500" stroke="#3B82F6" stroke-width="0.5"/><line x1="1080" y1="0" x2="1080" y2="500" stroke="#3B82F6" stroke-width="0.5"/><line x1="1120" y1="0" x2="1120" y2="500" stroke="#3B82F6" stroke-width="0.5"/><line x1="1160" y1="0" x2="1160" y2="500" stroke="#3B82F6" stroke-width="0.5"/><line x1="1200" y1="0" x2="1200" y2="500" stroke="#3B82F6" stroke-width="0.5"/><line x1="1240" y1="0" x2="1240" y2="500" stroke="#3B82F6" stroke-width="0.5"/><line x1="1280" y1="0" x2="1280" y2="500" stroke="#3B82F6" stroke-width="0.5"/><line x1="1320" y1="0" x2="1320" y2="500" stroke="#3B82F6" stroke-width="0.5"/><line x1="1360" y1="0" x2="1360" y2="500" stroke="#3B82F6" stroke-width="0.5"/><line x1="1400" y1="0" x2="1400" y2="500" stroke="#3B82F6" stroke-width="0.5"/><line x1="1440" y1="0" x2="1440" y2="500" stroke="#3B82F6" stroke-width="0.5"/><line x1="1480" y1="0" x2="1480" y2="500" stroke="#3B82F6" stroke-width="0.5"/><line x1="1520" y1="0" x2="1520" y2="500" stroke="#3B82F6" stroke-width="0.5"/><line x1="1560" y1="0" x2="1560" y2="500" stroke="#3B82F6" stroke-width="0.5"/><line x1="1600" y1="0" x2="1600" y2="500" stroke="#3B82F6" stroke-width="0.5"/><line x1="0" y1="0" x2="1600" y2="0" stroke="#3B82F6" stroke-width="0.5"/><line x1="0" y1="40" x2="1600" y2="40" stroke="#3B82F6" stroke-width="0.5"/><line x1="0" y1="80" x2="1600" y2="80" stroke="#3B82F6" stroke-width="0.5"/><line x1="0" y1="120" x2="1600" y2="120" stroke="#3B82F6" stroke-width="0.5"/><line x1="0" y1="160" x2="1600" y2="160" stroke="#3B82F6" stroke-width="0.5"/><line x1="0" y1="200" x2="1600" y2="200" stroke="#3B82F6" stroke-width="0.5"/><line x1="0" y1="240" x2="1600" y2="240" stroke="#3B82F6" stroke-width="0.5"/><line x1="0" y1="280" x2="1600" y2="280" stroke="#3B82F6" stroke-width="0.5"/><line x1="0" y1="320" x2="1600" y2="320" stroke="#3B82F6" stroke-width="0.5"/><line x1="0" y1="360" x2="1600" y2="360" stroke="#3B82F6" stroke-width="0.5"/><line x1="0" y1="400" x2="1600" y2="400" stroke="#3B82F6" stroke-width="0.5"/><line x1="0" y1="440" x2="1600" y2="440" stroke="#3B82F6" stroke-width="0.5"/><line x1="0" y1="480" x2="1600" y2="480" stroke="#3B82F6" stroke-width="0.5"/></g>
<g class="float" transform="translate(90,110)">
<rect x="0" y="0" width="240" height="170" rx="18" fill="#1E293B" fill-opacity=".5" stroke="#38BDF8" stroke-opacity=".3"/>
<polyline points="30,120 70,90 110,100 150,55 200,75" fill="none" stroke="#38BDF8" stroke-width="3"/>
<rect x="30" y="135" width="20" height="20" fill="#3B82F6"/><rect x="60" y="115" width="20" height="40" fill="#06B6D4"/><rect x="90" y="90" width="20" height="65" fill="#A855F7"/>
</g>

<g class="float glow" transform="translate(1260,95)">
<circle cx="90" cy="90" r="70" fill="none" stroke="#38BDF8" stroke-width="2"/>
<path d="M90 35 Q125 55 125 90 Q125 125 90 145 Q55 125 55 90 Q55 55 90 35Z" fill="none" stroke="#A855F7" stroke-width="2"/>
<circle class="node" cx="90" cy="90" r="4" fill="#fff"/>
<circle class="node" cx="55" cy="90" r="4" fill="#fff"/>
<circle class="node" cx="125" cy="90" r="4" fill="#fff"/>
<line x1="55" y1="90" x2="90" y2="90" stroke="#38BDF8"/>
<line x1="90" y1="90" x2="125" y2="90" stroke="#38BDF8"/>
</g>
<g opacity=".45"><circle class="node" cx="500" cy="120" r="3" fill="#38BDF8"/><circle class="node" cx="620" cy="80" r="3" fill="#38BDF8"/><circle class="node" cx="760" cy="150" r="3" fill="#38BDF8"/><circle class="node" cx="930" cy="90" r="3" fill="#38BDF8"/><circle class="node" cx="1080" cy="160" r="3" fill="#38BDF8"/><circle class="node" cx="700" cy="250" r="3" fill="#38BDF8"/><circle class="node" cx="890" cy="260" r="3" fill="#38BDF8"/><line x1="500" y1="120" x2="620" y2="80" stroke="#38BDF8" stroke-opacity=".4"/><line x1="620" y1="80" x2="760" y2="150" stroke="#38BDF8" stroke-opacity=".4"/><line x1="760" y1="150" x2="930" y2="90" stroke="#38BDF8" stroke-opacity=".4"/><line x1="930" y1="90" x2="1080" y2="160" stroke="#38BDF8" stroke-opacity=".4"/><line x1="1080" y1="160" x2="700" y2="250" stroke="#38BDF8" stroke-opacity=".4"/><line x1="700" y1="250" x2="890" y2="260" stroke="#38BDF8" stroke-opacity=".4"/></g>
<text x="800" y="185" text-anchor="middle" font-size="64" font-weight="700" fill="url(#nameGrad)">Dhruv Kumar</text>

<g font-size="28" text-anchor="middle" fill="#E5F3FF">
<text class="fade" x="800" y="230">Data Scientist<tspan class="cursor">|</tspan></text>
<text class="fade" x="800" y="230">Machine Learning Engineer<tspan class="cursor">|</tspan></text>
<text class="fade" x="800" y="230">Data Analyst<tspan class="cursor">|</tspan></text>
<text class="fade" x="800" y="230">Python Developer<tspan class="cursor">|</tspan></text>
<text class="fade" x="800" y="230">AI Enthusiast<tspan class="cursor">|</tspan></text>
<text class="fade" x="800" y="230">Power BI Developer<tspan class="cursor">|</tspan></text>
<text class="fade" x="800" y="230">SQL Developer<tspan class="cursor">|</tspan></text>
<text class="fade" x="800" y="230">Open Source Learner<tspan class="cursor">|</tspan></text>
</g>

<text x="800" y="275" text-anchor="middle" class="small">
Building intelligent solutions through data, machine learning, and analytics.
</text>

<path class="wave" d="M0 430 C200 390 350 470 550 430 S900 390 1100 430 S1450 470 1700 430" fill="none" stroke="#38BDF8" stroke-opacity=".35" stroke-width="3"/>

<text x="800" y="468" text-anchor="middle" fill="#64748B" font-size="16">
Reserved Space Below Banner → GitHub Stats • Streak • Languages • Snake • Activity Graph • Visitors • Followers • Repositories • Blog
</text>
</svg>
